<?xml version="1.0" standalone="no"?>
<!DOCTYPE svg PUBLIC "-//W3C//DTD SVG 20010904//EN"
 "http://www.w3.org/TR/2001/REC-SVG-20010904/DTD/svg10.dtd">
<svg version="1.0" xmlns="http://www.w3.org/2000/svg"
 width="859.000000pt" height="859.000000pt" viewBox="0 0 859.000000 859.000000"
 preserveAspectRatio="xMidYMid meet">
<metadata>
Created by potrace 1.14, written by Peter Selinger 2001-2017
</metadata>
<g transform="translate(0.000000,859.000000) scale(0.100000,-0.100000)"
fill="#000000" stroke="none">
<path d="M424 7339 c-12 -4 -24 -20 -28 -36 -3 -15 -8 -262 -11 -548 -6 -644
-11 -845 -20 -868 -18 -45 -79 -44 -96 1 -5 14 -12 161 -14 326 -15 1036 -17
1089 -38 1114 -6 7 -22 12 -36 10 -24 -3 -27 -8 -33 -59 -9 -76 -15 -1238 -7
-1539 8 -314 19 -351 134 -475 55 -59 128 -167 151 -221 12 -30 16 -71 16
-169 -1 -160 -13 -504 -27 -765 -3 -52 -12 -225 -20 -385 -14 -281 -18 -368
-30 -675 -3 -80 -10 -228 -15 -330 -5 -102 -12 -261 -16 -355 -3 -93 -7 -215
-9 -270 -26 -687 -21 -731 97 -802 75 -45 141 -58 198 -38 81 28 147 81 176
142 l27 55 -6 271 c-4 150 -11 353 -17 452 -16 301 -20 373 -25 545 -5 151
-18 437 -30 665 -5 94 -12 253 -20 490 -3 77 -12 282 -20 455 -29 622 -27 682
20 769 14 25 57 84 97 131 120 144 139 178 149 267 11 93 14 1640 4 1739 -9
88 -22 114 -52 103 -31 -11 -33 -45 -35 -787 l-3 -654 -28 -24 c-35 -30 -49
-30 -81 -1 -23 20 -25 31 -30 127 -3 58 -6 348 -7 645 -1 297 -6 571 -9 608
-8 73 -25 102 -53 91 -17 -6 -22 -19 -32 -79 -5 -32 -13 -439 -20 -1027 -2
-197 -6 -362 -10 -368 -3 -5 -28 -10 -54 -10 -38 0 -50 4 -53 18 -2 9 -5 170
-6 357 -3 384 -20 1061 -28 1087 -6 21 -24 27 -50 17z"/>
<path d="M8338 7313 c-148 -122 -303 -418 -417 -794 -71 -233 -137 -554 -157
-761 -11 -112 -13 -481 -3 -553 13 -91 63 -295 89 -363 31 -80 118 -250 160
-312 21 -30 56 -92 79 -137 39 -79 41 -86 41 -175 0 -51 -9 -196 -20 -323 -10
-126 -22 -270 -25 -320 -10 -170 -16 -250 -20 -295 -3 -25 -7 -83 -10 -130
-10 -151 -15 -219 -50 -610 -19 -212 -37 -437 -40 -500 -3 -63 -8 -133 -10
-155 -2 -22 -7 -107 -10 -190 -4 -82 -8 -167 -10 -189 -6 -68 20 -130 73 -176
26 -22 65 -49 88 -60 48 -24 139 -27 188 -6 47 19 112 81 143 134 l26 44 5
886 c8 1589 8 3093 0 3098 -5 3 -6 10 -2 15 6 10 6 144 1 1144 -3 626 -5 683
-22 718 -21 46 -49 49 -97 10z"/>
<path d="M4005 7234 c-167 -21 -376 -64 -550 -114 -304 -88 -669 -274 -940
-479 -239 -182 -473 -427 -647 -681 -279 -404 -470 -935 -505 -1400 -9 -117
-10 -416 -1 -525 24 -309 121 -669 260 -970 274 -595 763 -1104 1340 -1398
258 -132 473 -204 798 -271 195 -40 263 -45 585 -42 336 4 379 9 705 91 370
92 715 261 1040 510 118 90 377 343 491 480 183 220 360 514 446 740 68 179
143 423 158 515 4 19 15 85 25 145 42 249 44 648 5 895 -9 52 -18 109 -21 125
-10 65 -17 95 -55 225 -32 114 -65 212 -104 315 -29 76 -136 293 -177 357 -26
43 -48 80 -48 84 0 12 -155 230 -219 309 -138 169 -352 379 -491 481 -35 26
-75 58 -89 70 -14 13 -29 24 -32 24 -4 0 -49 29 -100 64 -161 109 -395 221
-634 303 -144 49 -475 123 -630 141 -77 9 -549 13 -610 6z m465 -785 c52 -4
115 -11 140 -14 25 -4 60 -8 79 -11 18 -2 68 -13 110 -24 461 -118 841 -352
1151 -708 30 -34 59 -70 65 -80 5 -10 28 -42 51 -72 54 -73 147 -232 194 -333
40 -87 125 -315 135 -363 52 -258 59 -319 60 -544 0 -193 -3 -243 -23 -355
-40 -222 -51 -261 -127 -455 -225 -579 -735 -1055 -1341 -1251 -183 -60 -246
-74 -429 -95 -151 -18 -410 -15 -535 6 -36 6 -78 13 -95 16 -296 49 -691 230
-950 434 -179 141 -402 396 -512 585 -132 227 -232 492 -267 705 -48 294 -46
541 9 870 16 94 114 368 177 495 268 532 722 920 1289 1101 179 57 265 76 419
93 88 10 284 10 400 0z"/>
<path d="M4100 6218 c-174 -9 -192 -12 -395 -79 -314 -105 -541 -245 -771
-477 -215 -218 -344 -414 -450 -689 -44 -113 -87 -269 -98 -353 -10 -72 -7
-609 3 -670 47 -280 198 -612 391 -856 116 -148 316 -329 481 -435 188 -122
528 -257 702 -279 106 -13 569 -13 675 0 122 16 409 117 557 197 302 163 548
388 732 669 99 151 198 367 243 531 43 157 49 212 49 508 0 361 -10 435 -97
665 -51 138 -112 262 -181 368 -256 400 -596 667 -1036 817 -181 62 -239 72
-445 81 -80 3 -165 6 -190 7 -25 1 -101 -1 -170 -5z"/>
</g>
</svg>
